{"title":"Dalziel &amp; Pascoe S01","uid":15508563,"size":2026776065,"categoryP":"video","categoryS":"tv_shows","magnet":"?xt=urn:btih:ec591c24b223857605d9cb4897b08be6c8d4a7d9&amp;dn=Dalziel+%26amp%3B+Pascoe+S01&amp;tr=udp%3A%2F%2Ftracker.leechers-paradise.org%3A6969&amp;tr=udp%3A%2F%2Fzer0day.ch%3A1337&amp;tr=udp%3A%2F%2Fopen.demonii.com%3A1337&amp;tr=udp%3A%2F%2Ftracker.coppersurfer.tk%3A6969&amp;tr=udp%3A%2F%2Fexodus.desync.com%3A6969","seeders":2,"leechers":0,"uploader":"RedBaron58","files":3,"time":1470618175,"description":"Dalziel and Pascoe S01 DVDrip x264 mp4\r\n  \nhttp://www.imdb.com/title/tt0147760/\r\n\r\n\r\n\r\nThank you for your kind comments and feedback on my other torrents, your feedback is welcome.\r\n\r\n\r\nAbout the Series:\r\nThe series is primarily set in Yorkshire, and follows the work of two detectives that are \r\nthrown together as partners. Complete opposites. Different backgrounds, different beliefs, \r\ndifferent styles. They get on each other's nerves. They are continually embarrassed by \r\neach other. But their differences make them a stunningly brilliant crime-solving team.\r\nSeason 1 sees the detectives from there first encounter, onto Pascoe's marriage, and a\r\ntriangle of persoalities that continues throughout the series.\r\n\r\n\r\nI hope you enjoy.\r\n\r\n\r\nTechnical: (All episodes are encoded to the same settings)\r\n\r\nGeneral\r\nComplete name                            : I:Dalziel &amp; Pascoe S01Dalziel Pascoe S01E01 - A Clubbable Woman.mp4\r\nFormat                                   : MPEG-4\r\nFormat profile                           : Base Media / Version 2\r\nCodec ID                                 : mp42\r\nFile size                                : 639 MiB\r\nDuration                                 : 1h 29mn\r\nOverall bit rate mode                    : Variable\r\nOverall bit rate                         : 1 000 Kbps\r\nEncoded date                             : UTC 2016-07-24 20:41:28\r\nTagged date                              : UTC 2016-07-24 20:44:17\r\nWriting application                      : HandBrake 0.9.8 2012071700\r\n\r\nVideo\r\nID                                       : 1\r\nFormat                                   : AVC\r\nFormat/Info                              : Advanced Video Codec\r\nFormat profile                           :   \r\nFormat settings, CABAC                   : Yes\r\nFormat settings, ReFrames                : 4 frames\r\nCodec ID                                 : avc1\r\nCodec ID/Info                            : Advanced Video Coding\r\nDuration                                 : 1h 29mn\r\nBit rate                                 : 900 Kbps\r\nWidth                                    : 698 pixels\r\nHeight                                   : 498 pixels\r\nDisplay aspect ratio                     : 3:2\r\nOriginal display aspect ratio            : 3:2\r\nFrame rate mode                          : Variable\r\nFrame rate                               : 25.000 fps\r\nMinimum frame rate                       : 8.333 fps\r\nMaximum frame rate                       : 25.000 fps\r\nColor space                              : YUV\r\nChroma subsampling                       : 4:2:0\r\nBit depth                                : 8 bits\r\nScan type                                : Progressive\r\nBits/(Pixel*Frame)                       : 0.104\r\nStream size                              : 575 MiB (90%)\r\nWriting library                          : x264 core 120\r\nEncoding settings                        : cabac=1 / ref=1 / deblock=1:0:0\r\nEncoded date                             : UTC 2016-07-24 20:41:28\r\nTagged date                              : UTC 2016-07-24 20:44:17\r\nColor range                              : Limited\r\nColor primaries                          : BT.601 NTSC\r\nTransfer characteristics                 : BT.709\r\nMatrix coefficients                      : BT.601\r\n\r\nAudio\r\nID                                       : 2\r\nFormat                                   : AAC\r\nFormat/Info                              : Advanced Audio Codec\r\nFormat profile                           : LC\r\nCodec ID                                 : 40\r\nDuration                                 : 1h 29mn\r\nBit rate mode                            : Variable\r\nBit rate                                 : 96.0 Kbps\r\nMaximum bit rate                         : 116 Kbps\r\nChannel(s)                               : 2 channels\r\nChannel positions                        : Front: L R\r\nSampling rate                            : 48.0 KHz\r\nCompression mode                         : Lossy\r\nStream size                              : 61.4 MiB (10%)\r\nTitle                                    : Stereo\r\nLanguage                                 : English","torrent":{"xt":"urn:btih:ec591c24b223857605d9cb4897b08be6c8d4a7d9","amp;dn":"Dalziel+%26amp%3B+Pascoe+S01","amp;tr":["udp%3A%2F%2Ftracker.leechers-paradise.org%3A6969","udp%3A%2F%2Fzer0day.ch%3A1337","udp%3A%2F%2Fopen.demonii.com%3A1337","udp%3A%2F%2Ftracker.coppersurfer.tk%3A6969","udp%3A%2F%2Fexodus.desync.com%3A6969"],"infoHash":"ec591c24b223857605d9cb4897b08be6c8d4a7d9","infoHashBuffer":{"type":"Buffer","data":[236,89,28,36,178,35,133,118,5,217,203,72,151,176,139,230,200,212,167,217]},"announce":[],"urlList":[]}}